<?xml version="1.0" encoding="UTF-8" standalone="no"?>
<svg
   id="Layer_1"
   data-name="Layer 1"
   viewBox="0 0 31.86 11.38"
   version="1.1"
   sodipodi:docname="flow3r-logo.svg"
   inkscape:export-filename="flow3r-logo.png"
   inkscape:export-xdpi="10000"
   inkscape:export-ydpi="10000"
   inkscape:version="1.2.2 (b0a8486541, 2022-12-01)"
   xmlns:inkscape="http://www.inkscape.org/namespaces/inkscape"
   xmlns:sodipodi="http://sodipodi.sourceforge.net/DTD/sodipodi-0.dtd"
   xmlns="http://www.w3.org/2000/svg"
   xmlns:svg="http://www.w3.org/2000/svg">
  <sodipodi:namedview
     id="namedview19"
     pagecolor="#ffffff"
     bordercolor="#666666"
     borderopacity="1.0"
     inkscape:showpageshadow="2"
     inkscape:pageopacity="0.0"
     inkscape:pagecheckerboard="0"
     inkscape:deskcolor="#d1d1d1"
     showgrid="false"
     inkscape:zoom="29.959688"
     inkscape:cx="16.104974"
     inkscape:cy="2.9873476"
     inkscape:window-width="1920"
     inkscape:window-height="1182"
     inkscape:window-x="0"
     inkscape:window-y="18"
     inkscape:window-maximized="1"
     inkscape:current-layer="Layer_1" />
  <defs
     id="defs4">
    <style
       id="style2">
      .cls-1 {
        fill: #231f20;
      }
    </style>
  </defs>
  <path
     class="cls-1"
     d="m 4.66,7.29 0.3,0.24 C 5.43,8.02 5.97,8.5 5.79,9.27 5.6,10.22 5.1094996,11.002802 4.3,11.27 3.615691,11.365582 3.0280187,11.162916 2.4507217,11.011446 1.3907217,10.731446 0.79,10 0.39,9.02 0.24,8.66 0.15,8.23 0.07,7.79 c 0,-0.07 0.15,-0.19 0.21,-0.2 0.1,-0.05 0.24,0 0.29,0.1 0.13,0.22 0.23,0.48 0.33,0.75 0.19,0.45 0.48,0.86 0.83,1.2 0.59,0.58 1.22,0.7 2.03,0.6 C 4.43,10.16 4.88,9.59 4.66,8.93 4.53,8.47 4.34,8.01 3.86,7.7 3.38,7.38 2.95,6.99 2.65,6.52 2.47,6.2 2.15,6.07 1.74,6.12 1.37,6.2 1,6.21 0.59,6.26 0.32,6.29 0.11,6.26 0.02,6.06 -0.07,5.87 0.13,5.53 0.42,5.46 0.85,5.37 1.26,5.32 1.66,5.27 1.89,5.21 1.98,5.09 1.98,4.85 1.95,4.65 1.97,4.48 1.94,4.27 1.97,2.59 2.74,1.36 4.21,0.56 5.35,-0.02 6.56,-0.24 7.76,0.33 8.24,0.58 8.68,0.86 8.95,1.38 9.13,1.7 9.09,1.98 8.92,2.27 8.81,2.49 8.44,2.57 8.38,2.34 8.07,1.49 7.38,1.2 6.62,1.09 5.85,0.98 5.05,1.15 4.43,1.64 3.52,2.33 2.89,3.24 2.86,4.44 2.86,4.99 2.98,5.14 3.49,5.11 4.41,5.1 5.33,5.02 6.25,5 6.56,5 6.86,5 7.15,5.09 7.26,5.11 7.38,5.27 7.43,5.43 7.43,5.5 7.39,5.64 7.33,5.72 7.12,5.99 6.82,6.06 6.48,6.03 5.87,6.03 5.24,5.98 4.63,5.99 4.26,6 3.89,6.08 3.52,6.16 3.6471322,6.7249665 4.3381969,7.0441296 4.65,7.29 Z"
     id="path6"
     sodipodi:nodetypes="cccccccccccccccccccccccccccccccccccccccc" />
  <path
     class="cls-1"
     d="m 26.62,5.63 c -0.1,0.29 -0.08,0.49 0.12,0.7 1.09,1.33 0.48,3.84 -1.59,4.24 -0.57,0.11 -1.21,0.15 -1.83,0.16 -0.301528,0.0023 -0.418405,-0.152576 -0.6,-0.4 C 22.64,10.2 22.8,9.84 23.03,9.78 23.19,9.73 23.4,9.7 23.6,9.67 24,9.62 24.45,9.6884064 24.86,9.6284064 25.9,9.4684064 26.54,8.3 26.15,7.33 26.04,7 25.78,6.86 25.44,6.84 25.03,6.82 24.65,6.84 24.31,6.81 24.07,6.81 23.86,6.76 23.64,6.65 23.5,6.6 23.37,6.38 23.31,6.21 23.28,6.01 23.4,5.86 23.63,5.79 23.86,5.72 24.13,5.69 24.4,5.66 24.7,5.59 25.01,5.58 25.27,5.48 25.46,5.39 25.61,5.2 25.69,5.02 25.8,4.8 25.62,4.48 25.37,4.34 25.15,4.23 24.86,4.13 24.62,4.13 24.03,4.1 23.39,4.15 22.78,4.16 c -0.24,0 -0.43,-0.15 -0.46,-0.42 0.02,-0.11 0.03,-0.28 0.1,-0.29 1.19,-0.35 2.335213,-0.6957191 3.46,0.01 0.829125,0.5677341 1.125862,1.3342863 0.74,2.17 z"
     id="path8"
     sodipodi:nodetypes="cccccccccccccscccccccccc" />
  <path
     class="cls-1"
     d="m 21.32,10.02 c -0.48,0.54 -1.02,0.85 -1.75,0.53 -0.32,-0.13 -0.59,-0.1 -0.94,0.12 -0.95,0.6 -1.74,0.29 -2.19,-0.79 -0.39,-0.91 -0.37,-1.87 -0.25,-2.81 0.03,-0.28 0.26,-0.41 0.46,-0.43 0.28,0.03 0.44,0.22 0.43,0.46 0,0.31 -0.03,0.59 -0.03,0.89 0,0.61 0.15,1.21 0.46,1.76 0.05,0.1 0.27,0.21 0.33,0.2 0.13,-0.02 0.29,-0.14 0.35,-0.21 0.1,-0.29 0.1,-0.59 0.16,-0.91 0.04,-0.21 0,-0.48 0.09,-0.66 C 18.49,8.03 18.684514,7.8454072 18.845023,7.8595049 19.026443,7.8412506 19.21,8.04 19.3,8.17 c 0.13,0.22 0.13,0.53 0.2,0.76 0.05,0.16 0.05,0.4 0.2,0.52 0.08,0.13 0.3,0.24 0.51,0.21 C 20.34,9.64 20.6,9.47 20.62,9.37 20.73,8.91 20.81,8.42 20.85,7.9 20.88,7.55 20.83,7.22 20.79,6.88 20.76,6.61 20.87,6.46 21.06,6.3 c 0.391958,-0.2826722 0.56628,0.1473247 0.58,0.27 0.15,0.91 0.23,1.82 0,2.74 -0.03,0.28 -0.21,0.51 -0.32,0.72 z"
     id="path10"
     sodipodi:nodetypes="cccccccscccccccccccccccccc" />
  <path
     class="cls-1"
     d="m 10.67,9.1 c 0.07049,-1.1860434 0.922367,-1.8060314 1.53,-2.28 1.51,-0.77 3.44,0.12 3.5,1.99 0.03,0.82 -0.3,1.41 -1,1.84 -2.036609,1.001989 -4.008431,0.227563 -4.03,-1.55 z m 1.05,0.15 c -0.11,0.46 0.18,0.87 0.64,0.98 0.931151,0.131879 1.57703,0.03105 2.15,-0.58 C 14.77,9.24 14.72,8.36 14.4,7.99 14.04,7.59 13.37,7.43 12.82,7.67 11.925679,8.1457875 11.868493,8.5683808 11.72,9.25 Z"
     id="path12"
     sodipodi:nodetypes="ccccccccccc" />
  <path
     class="cls-1"
     d="M 9.59,11.12 C 9.38,11.39 9.02,11.47 8.92,11.27 8.79,11.05 8.66,10.82 8.6,10.59 8.53,10.29 8.6,9.98 8.59,9.67 8.79,8 8.78,6.29 8.74,4.62 8.74,4.31 8.74,4.01 9.01,3.8 9.2,3.64 9.5,3.64 9.57,3.87 9.68,4.2 9.79,4.53 9.83,4.86 9.86,6.22 10,7.61 9.8,8.97 9.7467511,9.7540485 9.7008815,10.400531 9.59,11.12 Z"
     id="path14"
     sodipodi:nodetypes="cccccccccc" />
  <path
     class="cls-1"
     d="m 31.84,6.34 c 0.06,0.23 -0.05,0.38 -0.29,0.45 -0.23,0.06 -0.54,0.07 -0.78,0.06 -0.44,0.02 -0.79,0.24 -1.13,0.52 -0.24,0.24 -0.35,0.45 -0.38,0.8 -0.02,0.41 0,0.85 -0.12,1.25 -0.03,0.28 -0.24,0.54 -0.38,0.8 -0.06,0.08 -0.22,0.13 -0.26,0.1 -0.11,-0.02 -0.19,-0.15 -0.24,-0.24 -0.05,-0.16 -0.07,-0.3 -0.06,-0.47 0.12,-0.94 0,-1.88 -0.09,-2.86 -0.02,-0.13 0,-0.31 0,-0.48 0.05,-0.38 0.44,-0.57 0.75,-0.33 0.27,0.21 0.47,0.18 0.73,0.08 0.29,-0.14 0.663304,-0.3665647 0.84,-0.38 0.91388,-0.095812 1.338886,0.3088835 1.41,0.7 z"
     id="path16"
     sodipodi:nodetypes="cccccccccccccccc" />
</svg>
